<?xml version="1.0" encoding="UTF-8"?>
<svg width="37px" height="28px" viewBox="0 0 37 28" version="1.1" xmlns="http://www.w3.org/2000/svg" xmlns:xlink="http://www.w3.org/1999/xlink">
    <!-- Generator: Sketch 53.2 (72643) - https://sketchapp.com -->
    <title>icon_交学费</title>
    <desc>Created with Sketch.</desc>
    <g id="视觉图新" stroke="none" stroke-width="1" fill="none" fill-rule="evenodd">
        <g id="1首页" transform="translate(-289.000000, -1153.000000)" fill="#FFFEFF" fill-rule="nonzero">
            <g id="Group-4" transform="translate(95.000000, 1122.000000)">
                <g id="Group-7" transform="translate(194.000000, 22.000000)">
                    <path d="M36.1458133,18.0037601 L19.2472271,9.18112842 C18.7839293,8.93962386 18.2313921,8.93962386 17.7680943,9.18112842 L0.868627146,18.0037601 C0.387555502,18.2555346 0.0681634456,18.7342223 0.0211430595,19.273924 C0.00783566256,19.3570233 0.00076833867,19.4409973 0,19.5251458 L0,31.4397393 C0.0285837626,32.2967736 0.733648208,32.9767972 1.59365772,32.9767972 C2.45366724,32.9767972 3.15873169,32.2967736 3.18731545,31.4397393 L3.18731545,21.7676965 L7.13225697,23.3707732 C7.01701648,23.5937964 6.9569094,23.8410546 6.95694583,24.0919382 L6.95694583,32.0352933 C6.95694583,32.4955739 7.15340003,32.9101779 7.467022,33.2000493 C9.05715588,35.8185544 14.0240117,37 18.5089821,37 C22.9930716,37 27.9608084,35.8185544 29.5500613,33.2000493 C29.8751357,32.8996371 30.0601375,32.478006 30.0601375,32.0352933 L30.0601375,24.0919382 C30.0601375,23.8415947 30.0002321,23.5938864 29.8848263,23.3707732 L36.0092644,20.8822711 C36.5831474,20.6484012 36.9689205,20.1039075 36.9982117,19.4864362 C37.0275029,18.8689649 36.6949954,18.2905958 36.1458133,18.0037601 L36.1458133,18.0037601 Z M25.8887891,25.0318243 L19.1027496,27.7504667 C18.720591,27.9039493 18.2936213,27.9036345 17.9116909,27.7495884 L11.1547231,25.0309459 C11.0305534,24.9807133 10.9133198,24.9148874 10.8058627,24.8350631 L10.7697433,24.8078327 C10.7424335,24.7876296 10.7160047,24.7647912 10.6904568,24.7428313 C10.6779094,24.731047 10.665574,24.7190403 10.6534565,24.7068169 C10.59507,24.6532552 10.5414262,24.5947713 10.4931217,24.5320157 C10.4825502,24.5188397 10.4746215,24.5056637 10.4649309,24.4916094 C10.4428751,24.4622981 10.4220089,24.4321155 10.4023827,24.4011344 L10.3812397,24.3642416 C10.3607692,24.3298704 10.3416668,24.2947071 10.3239772,24.2588339 L10.3098819,24.2298467 C10.121265,23.831115 10.1081721,23.3719699 10.2737625,22.9631965 C10.6033401,22.1498256 11.5316167,21.7566325 12.3475437,22.0847983 L17.3364236,24.0928166 L18.5089821,24.5645164 L19.6868265,24.0928166 L24.7003732,22.0847983 C25.3096412,21.8424943 26.0055751,21.9971653 26.4539621,22.4745324 C26.9023491,22.9518996 27.0115908,23.6544445 26.7292255,24.2447795 C26.6834155,24.3414033 26.627915,24.4327567 26.5627239,24.5188397 L26.5424618,24.5443133 C26.4737845,24.6309642 26.3964496,24.7104287 26.3116501,24.7814808 C26.2896261,24.7999271 26.2658402,24.8166167 26.2429352,24.8341847 L26.1900776,24.8737126 L26.1927204,24.8719558 C26.0971916,24.9355222 25.9953423,24.9890951 25.8887891,25.0318243 L25.8887891,25.0318243 Z" id="icon_交学费"></path>
                </g>
            </g>
        </g>
    </g>
</svg>