<?xml version="1.0" encoding="UTF-8"?>
<svg width="32px" height="32px" viewBox="0 0 32 32" version="1.1" xmlns="http://www.w3.org/2000/svg" xmlns:xlink="http://www.w3.org/1999/xlink">
    <!-- Generator: Sketch 53.2 (72643) - https://sketchapp.com -->
    <title>icon_search</title>
    <desc>Created with Sketch.</desc>
    <g id="视觉图新" stroke="none" stroke-width="1" fill="none" fill-rule="evenodd">
        <g id="2.1账号管理" transform="translate(-56.000000, -264.000000)" fill="#CCCCCC" fill-rule="nonzero">
            <g id="Group-2" transform="translate(0.000000, 232.000000)">
                <g id="sou" transform="translate(56.000000, 32.000000)">
                    <path d="M30.234037,27.4026337 L26.6546329,23.8188296 C26.5534328,23.7176295 26.4456326,23.6428294 26.3400325,23.5592293 C27.7876342,21.3218267 29.1208357,17.8128226 29.1208357,14.9418192 C29.1208357,7.05921008 22.7078283,0.668202639 14.8868192,0.668202639 C7.06801009,0.668202639 0.578002534,7.05701007 0.578002534,14.9418192 C0.578002534,22.8266284 6.99321,29.2132359 14.8120191,29.2132359 C17.6566224,29.2132359 21.1612265,28.0274345 23.3832291,26.5688328 C23.4646292,26.6766329 23.5372293,26.786633 23.6362294,26.8834331 L27.5610339,30.4672373 C28.7314353,31.6420387 30.6608375,31.3714384 30.7664377,31.2680382 C31.928039,30.0976369 31.3956384,28.5774351 30.234037,27.4026337 Z M14.8868192,24.8836308 C9.40881281,24.8836308 4.95380763,20.3912256 4.95380763,14.8670192 L4.95380739,14.8668881 C4.94415739,9.38589112 9.37955942,4.93487344 14.860522,4.92521405 C14.8693286,4.92519855 14.8781351,4.92519476 14.8869416,4.9252027 L14.8869418,4.9252027 C20.3679388,4.9203341 24.8151065,9.35961724 24.8199534,14.8405799 C24.8199612,14.8493864 24.8199573,14.8581929 24.8199417,14.8669994 C24.8221417,20.3890058 20.3627365,24.8836111 14.8869301,24.8836111 L14.8868192,24.8836308 Z" id="icon_search"></path>
                </g>
            </g>
        </g>
    </g>
</svg>