<?xml version="1.0" encoding="UTF-8"?>
<svg width="24px" height="24px" viewBox="0 0 24 24" version="1.1" xmlns="http://www.w3.org/2000/svg" xmlns:xlink="http://www.w3.org/1999/xlink">
    <!-- Generator: Sketch 53.2 (72643) - https://sketchapp.com -->
    <title>合并形状</title>
    <desc>Created with Sketch.</desc>
    <g id="视觉图新" stroke="none" stroke-width="1" fill="none" fill-rule="evenodd">
        <g id="1.2首页-下拉" transform="translate(-487.000000, -380.000000)" fill="#333333" fill-rule="nonzero">
            <g id="分组" transform="translate(446.000000, 237.627417)">
                <g id="Group-9-Copy" transform="translate(32.000000, 110.372583)">
                    <path d="M21,56 C14.3195876,56 9,50.556701 9,44 C9,37.443299 14.443299,32 21,32 C27.6804124,32 33,37.443299 33,44 C33,50.556701 27.6804124,56 21,56 Z M21,33.8556701 C15.4329897,33.8556701 10.8556701,38.4329897 10.8556701,44 C10.8556701,49.5670103 15.4329897,54.1443299 21,54.1443299 C26.5670103,54.1443299 31.1443299,49.5670103 31.1443299,44 C31.1443299,38.4329897 26.5670103,33.8556701 21,33.8556701 Z M16.7938144,41.6494845 C16.7938144,41.0309278 16.9175258,40.5360825 17.2886598,39.9175258 C17.6597938,39.2989691 18.1546392,38.9278351 18.7731959,38.4329897 C19.3917526,38.0618557 20.1340206,37.814433 21,37.814433 C21.742268,37.814433 22.4845361,37.9381443 23.1030928,38.3092784 C23.7216495,38.6804124 24.2164948,39.0515464 24.4639175,39.5463917 C24.8350515,40.0412371 24.9587629,40.6597938 24.9587629,41.2783505 C24.9587629,41.7731959 24.8350516,42.2680412 24.7113402,42.6391752 C24.5876289,43.0103093 24.3402062,43.3814433 24.0927835,43.628866 L22.7319588,44.9896907 L22.2371134,45.4845361 C22.1134021,45.6082474 21.9896907,45.7319588 21.9896907,45.8556701 C21.9896907,45.9793814 21.8659794,46.1030928 21.8659794,46.2268041 C21.8659794,46.3505155 21.742268,46.5979381 21.742268,46.8453608 C21.6185567,47.4639175 21.371134,47.7113402 20.7525773,47.7113402 C20.5051546,47.7113402 20.257732,47.5876289 20.0103093,47.4639175 C19.7628866,47.2164948 19.7628866,46.9690722 19.7628866,46.5979381 C19.7628866,46.1030928 19.8865979,45.7319588 20.0103093,45.3608248 C20.1340206,44.9896907 20.3814433,44.6185567 20.628866,44.371134 C20.8762887,44.1237113 21.1237113,43.7525773 21.6185567,43.3814433 L22.3608248,42.6391752 C22.4845361,42.5154639 22.6082474,42.2680412 22.7319588,42.0206186 C22.8556701,41.7731959 22.8556701,41.6494845 22.8556701,41.4020619 C22.8556701,40.9072165 22.7319588,40.5360825 22.3608248,40.1649484 C21.9896907,39.7938144 21.6185567,39.6701031 21.1237113,39.6701031 C20.5051546,39.6701031 20.1340206,39.7938144 19.7628866,40.1649484 C19.5154639,40.5360825 19.2680412,41.0309278 19.0206186,41.6494845 C18.8969072,42.2680412 18.5257732,42.6391752 18.0309278,42.6391752 C17.7835052,42.6391752 17.4123711,42.5154639 17.2886598,42.2680412 C16.9175258,42.1443299 16.7938144,41.8969072 16.7938144,41.6494845 Z M20.7525773,51.2989691 C20.3814433,51.2989691 20.1340206,51.1752577 19.8865979,50.9278351 C19.6391753,50.6804124 19.5154639,50.3092784 19.5154639,49.9381443 C19.5154639,49.5670103 19.6391752,49.1958763 19.8865979,48.9484536 C20.1340206,48.7010309 20.3814433,48.5773196 20.7525773,48.5773196 C21.1237113,48.5773196 21.371134,48.7010309 21.6185567,48.9484536 C21.8659794,49.1958763 21.9896907,49.5670103 21.9896907,49.9381443 C21.9896907,50.3092783 21.8659794,50.6804124 21.6185567,50.9278351 C21.371134,51.1752577 21.1237113,51.2989691 20.7525773,51.2989691 Z" id="合并形状"></path>
                </g>
            </g>
        </g>
    </g>
</svg>