<?xml version="1.0" encoding="UTF-8"?>
<svg width="24px" height="24px" viewBox="0 0 24 24" version="1.1" xmlns="http://www.w3.org/2000/svg" xmlns:xlink="http://www.w3.org/1999/xlink">
    <!-- Generator: Sketch 53.2 (72643) - https://sketchapp.com -->
    <title>形状</title>
    <desc>Created with Sketch.</desc>
    <g id="视觉图新" stroke="none" stroke-width="1" fill="none" fill-rule="evenodd">
        <g id="1.2首页-下拉" transform="translate(-486.000000, -556.000000)" fill="#333333" fill-rule="nonzero">
            <g id="分组" transform="translate(446.000000, 237.627417)">
                <g id="Group-9-Copy-3" transform="translate(32.000000, 286.372583)">
                    <path d="M13.626556,32 C10.5394191,32 8.04979253,34.5 8.04979253,37.6 C8.04979253,40.7 10.5394191,43.2 13.626556,43.2 L17.4605809,43.2 C18.406639,43.2 19.153527,42.45 19.153527,41.5 L19.153527,37.6 C19.153527,34.5 16.6639004,32 13.626556,32 Z M17.4605809,41.5 L13.5767635,41.5 C12.033195,41.5 10.5892116,40.55 9.99170124,39.1 C9.44398341,37.65 9.74273858,35.95 10.8381743,34.85 C11.93361,33.75 13.626556,33.4 15.0705394,34 C16.5145228,34.6 17.4605809,36 17.4605809,37.6 L17.4605809,41.5 L17.4605809,41.5 Z M17.4605809,44.8 L13.5767635,44.8 C10.4896265,44.8 8,47.3 8,50.4 C8,53.5 10.4896265,56 13.5767635,56 C16.6639004,56 19.153527,53.5 19.153527,50.4 L19.153527,46.5 C19.153527,45.55 18.406639,44.8 17.4605809,44.8 L17.4605809,44.8 Z M17.4605809,50.4 C17.4605809,51.95 16.5145228,53.35 15.1203319,53.95 C14.6224066,54.15 14.1244813,54.25 13.626556,54.25 C13.1286307,54.25 12.5809129,54.15 12.1327801,53.95 C10.439834,53.25 9.49377594,51.4 9.84232366,49.6 C10.1908714,47.8 11.7842324,46.5 13.626556,46.5 L17.4605809,46.5 L17.4605809,50.4 L17.4605809,50.4 Z M26.373444,44.8 L22.4896266,44.8 C22.0414938,44.8 21.593361,45 21.2946058,45.3 C20.9958506,45.6 20.7966805,46.05 20.7966805,46.5 L20.7966805,50.4 C20.7966805,53.5 23.286307,56 26.373444,56 C29.4605809,56 31.9502075,53.5 31.9502075,50.4 C31.9502075,47.3 29.4605809,44.8 26.373444,44.8 Z M29.9585062,51.9 C29.2614108,53.6 27.4190871,54.55 25.626556,54.2 C23.8340249,53.85 22.5394191,52.25 22.5394191,50.4 L22.5394191,46.5 L26.4232365,46.5 C27.7178423,46.5 28.9128631,47.15 29.659751,48.25 C30.307054,49.35 30.4564315,50.7 29.9585062,51.9 Z M22.5394191,43.2 L26.4232365,43.2 C29.5103735,43.2 32,40.7 32,37.6 C32,34.5 29.5103735,32 26.4232365,32 C23.3360996,32 20.846473,34.5 20.846473,37.6 L20.846473,41.5 C20.7966805,42.4 21.593361,43.2 22.5394191,43.2 Z M22.4896266,37.6 C22.4896266,35.45 24.2323652,33.7 26.373444,33.7 C28.5145228,33.7 30.2572614,35.45 30.2572614,37.6 C30.2572614,39.75 28.5145228,41.5 26.373444,41.5 L22.4896266,41.5 L22.4896266,37.6 L22.4896266,37.6 Z" id="形状"></path>
                </g>
            </g>
        </g>
    </g>
</svg>