<?xml version="1.0" encoding="UTF-8"?>
<svg width="24px" height="24px" viewBox="0 0 24 24" version="1.1" xmlns="http://www.w3.org/2000/svg" xmlns:xlink="http://www.w3.org/1999/xlink">
    <!-- Generator: Sketch 53.2 (72643) - https://sketchapp.com -->
    <title>icon_多选</title>
    <desc>Created with Sketch.</desc>
    <g id="视觉图" stroke="none" stroke-width="1" fill="none" fill-rule="evenodd">
        <g id="2.4添加缴费账户2" transform="translate(-32.000000, -1192.000000)" fill="#CC0401">
            <g id="Group" transform="translate(32.000000, 1192.000000)">
                <g id="icon_多选">
                    <path d="M2,0 L22,0 C23.1045695,-2.02906125e-16 24,0.8954305 24,2 L24,22 C24,23.1045695 23.1045695,24 22,24 L2,24 C0.8954305,24 1.3527075e-16,23.1045695 0,22 L0,2 C-1.3527075e-16,0.8954305 0.8954305,2.02906125e-16 2,0 Z M10.2426407,14.363961 L6.70710678,10.8284271 C6.31658249,10.4379028 5.68341751,10.4379028 5.29289322,10.8284271 C4.90236893,11.2189514 4.90236893,11.8521164 5.29289322,12.2426407 L9.53553391,16.4852814 C9.9260582,16.8758057 10.5592232,16.8758057 10.9497475,16.4852814 L18.7279221,8.70710678 C19.1184464,8.31658249 19.1184464,7.68341751 18.7279221,7.29289322 C18.3373978,6.90236893 17.7042328,6.90236893 17.3137085,7.29289322 L10.2426407,14.363961 Z" id="Combined-Shape"></path>
                </g>
            </g>
        </g>
    </g>
</svg>