<?xml version="1.0" standalone="no"?><!DOCTYPE svg PUBLIC "-//W3C//DTD SVG 1.1//EN" "http://www.w3.org/Graphics/SVG/1.1/DTD/svg11.dtd"><svg t="1559463666494" class="icon" style="" viewBox="0 0 1024 1024" version="1.1" xmlns="http://www.w3.org/2000/svg" p-id="1747" xmlns:xlink="http://www.w3.org/1999/xlink" width="64" height="64"><defs><style type="text/css"></style></defs><path d="M808.533333 354.133333c-4.266667-17.066667-8.533333-34.133333-17.066666-49.066666-14.933333-34.133333-36.266667-66.133333-64-91.733334-27.733333-25.6-59.733333-46.933333-93.866667-61.866666-34.133333-14.933333-72.533333-23.466667-113.066667-23.466667s-78.933333 8.533333-115.2 23.466667c-34.133333 14.933333-66.133333 34.133333-93.866666 61.866666-27.733333 25.6-49.066667 57.6-64 91.733334-6.4 17.066667-12.8 34.133333-17.066667 51.2-57.6 17.066667-102.4 74.666667-102.4 142.933333 0 40.533333 14.933333 76.8 44.8 106.666667 21.333333 21.333333 46.933333 34.133333 74.666667 40.533333 14.933333 2.133333 29.866667-8.533333 29.866666-23.466667l-2.133333-204.8c0-64 25.6-123.733333 72.533333-168.533333 46.933333-44.8 108.8-70.4 174.933334-70.4 66.133333 0 128 25.6 174.933333 70.4 46.933333 44.8 72.533333 104.533333 72.533333 168.533333v213.333334c0 64-25.6 123.733333-72.533333 168.533333-23.466667 23.466667-51.2 40.533333-78.933333 51.2 2.133333-10.666667 4.266667-21.333333 4.266666-32-2.133333-51.2-42.666667-93.866667-93.866666-96-55.466667-2.133333-100.266667 42.666667-100.266667 98.133333 0 53.333333 42.666667 96 96 98.133334h4.266667c38.4 0 74.666667-8.533333 110.933333-23.466667 34.133333-14.933333 66.133333-34.133333 93.866667-61.866667 27.733333-25.6 49.066667-57.6 64-91.733333 14.933333-32 21.333333-66.133333 23.466666-102.4 21.333333-6.4 40.533333-19.2 57.6-36.266667 27.733333-29.866667 44.8-66.133333 44.8-106.666666-6.4-68.266667-53.333333-125.866667-115.2-142.933334zM226.133333 584.533333c-6.4-4.266667-12.8-8.533333-19.2-14.933333-19.2-19.2-29.866667-44.8-29.866666-70.4 0-36.266667 19.2-70.4 49.066666-87.466667v172.8z m298.666667 283.733334c-27.733333 0-49.066667-21.333333-49.066667-46.933334 0-25.6 21.333333-46.933333 46.933334-46.933333 25.6 0 46.933333 21.333333 46.933333 46.933333 0 25.6-19.2 46.933333-44.8 46.933334z m313.6-298.666667c-6.4 6.4-14.933333 12.8-23.466667 17.066667v-177.066667c29.866667 17.066667 51.2 51.2 51.2 89.6 2.133333 25.6-8.533333 51.2-27.733333 70.4z" p-id="1748"></path></svg>