<?xml version="1.0" encoding="UTF-8"?>
<svg width="104px" height="6px" viewBox="0 0 104 6" version="1.1" xmlns="http://www.w3.org/2000/svg" xmlns:xlink="http://www.w3.org/1999/xlink">
    <!-- Generator: Sketch 53.2 (72643) - https://sketchapp.com -->
    <title>步骤条</title>
    <desc>Created with Sketch.</desc>
    <g id="视觉图" stroke="none" stroke-width="1" fill="none" fill-rule="evenodd">
        <g id="3.1账单选择" transform="translate(-215.000000, -317.000000)" fill="#D8D8D8">
            <g id="Group-2" transform="translate(0.000000, 232.000000)">
                <path d="M218,91 C216.343146,91 215,89.6568542 215,88 C215,86.3431458 216.343146,85 218,85 C219.656854,85 221,86.3431458 221,88 C221,89.6568542 219.656854,91 218,91 Z M232,91 C230.343146,91 229,89.6568542 229,88 C229,86.3431458 230.343146,85 232,85 C233.656854,85 235,86.3431458 235,88 C235,89.6568542 233.656854,91 232,91 Z M246,91 C244.343146,91 243,89.6568542 243,88 C243,86.3431458 244.343146,85 246,85 C247.656854,85 249,86.3431458 249,88 C249,89.6568542 247.656854,91 246,91 Z M260,91 C258.343146,91 257,89.6568542 257,88 C257,86.3431458 258.343146,85 260,85 C261.656854,85 263,86.3431458 263,88 C263,89.6568542 261.656854,91 260,91 Z M274,91 C272.343146,91 271,89.6568542 271,88 C271,86.3431458 272.343146,85 274,85 C275.656854,85 277,86.3431458 277,88 C277,89.6568542 275.656854,91 274,91 Z M288,91 C286.343146,91 285,89.6568542 285,88 C285,86.3431458 286.343146,85 288,85 C289.656854,85 291,86.3431458 291,88 C291,89.6568542 289.656854,91 288,91 Z M302,91 C300.343146,91 299,89.6568542 299,88 C299,86.3431458 300.343146,85 302,85 C303.656854,85 305,86.3431458 305,88 C305,89.6568542 303.656854,91 302,91 Z M316,91 C314.343146,91 313,89.6568542 313,88 C313,86.3431458 314.343146,85 316,85 C317.656854,85 319,86.3431458 319,88 C319,89.6568542 317.656854,91 316,91 Z" id="步骤条"></path>
            </g>
        </g>
    </g>
</svg>