<?xml version="1.0" encoding="UTF-8"?>
<svg width="30px" height="32px" viewBox="0 0 30 32" version="1.1" xmlns="http://www.w3.org/2000/svg" xmlns:xlink="http://www.w3.org/1999/xlink">
    <!-- Generator: Sketch 53.2 (72643) - https://sketchapp.com -->
    <title>svg/icon_i_data</title>
    <desc>Created with Sketch.</desc>
    <g id="视觉图" stroke="none" stroke-width="1" fill="none" fill-rule="evenodd">
        <g id="7我的主页" transform="translate(-43.000000, -588.000000)" fill="#D4D4D4" fill-rule="nonzero">
            <g id="Rows/单行列表" transform="translate(32.000000, 548.000000)">
                <path d="M32.9229548,66.7443152 L32.9229548,71.9455888 L41,65.6014657 L34.0767926,65.6014657 C33.4395614,65.6014657 32.9229548,66.1131526 32.9229548,66.7443152 Z M37.5384504,40 L14.4615496,40 C12.5497838,40 11,41.5350247 11,43.4285842 L11,68.5714158 C11,70.4649753 12.5497838,72 14.4615496,72 L30.6153874,72 L30.6153874,65.5603177 C30.6153874,64.2979567 31.6485646,63.274583 32.923063,63.274583 L41,63.274583 L41,43.4285842 C41,41.5350247 39.4502162,40 37.5384504,40 Z M27.1538378,61.307379 L15.6153874,61.307379 L15.6153874,58.9807465 L27.1538378,58.9807465 L27.1538378,61.307379 L27.1538378,61.307379 Z M36.3846126,54.3270168 L15.6153874,54.3270168 L15.6153874,52.0004916 L36.3846126,52.0004916 L36.3846126,54.3270168 Z M36.3846126,47.3470121 L15.6153874,47.3470121 L15.6153874,45.0201294 L36.3846126,45.0201294 L36.3846126,47.3470121 Z" id="svg/icon_i_data"></path>
            </g>
        </g>
    </g>
</svg>