<?xml version="1.0" encoding="UTF-8"?>
<svg width="48px" height="46px" viewBox="0 0 48 46" version="1.1" xmlns="http://www.w3.org/2000/svg" xmlns:xlink="http://www.w3.org/1999/xlink">
    <!-- Generator: Sketch 53.2 (72643) - https://sketchapp.com -->
    <title>svg/icon_pay_decorate</title>
    <desc>Created with Sketch.</desc>
    <g id="icon" stroke="none" stroke-width="1" fill="none" fill-rule="evenodd">
        <path d="M48,24.1434043 C48,22.8273615 47.4841917,21.5888078 46.5501432,20.6591124 L27.1929413,1.39744682 C25.3200763,-0.465526588 22.0536393,-0.465526588 20.1808325,1.39571331 L13.4865468,8.10756037 C11.5542571,10.0282027 11.5523965,13.1542883 13.4832906,15.076433 L32.8369457,34.3348049 C33.7742504,35.2662916 35.0190282,35.7786671 36.346547,35.7786671 C37.6705189,35.7786671 38.9152967,35.2663494 39.8507989,34.3363651 L41.3528703,32.7811521 L42.7018447,34.1233135 C43.3483058,34.765473 43.3483058,35.8054791 42.7976684,36.3607885 L37.8435015,40.5727032 C37.2005873,41.2167118 36.1525737,41.2152095 35.5060544,40.5727032 L22.8224385,27.9530808 L22.6570147,27.7886839 C20.7231551,25.8682727 17.5772536,25.8633032 15.6449059,27.7838878 L15.147239,28.2782922 L11.975114,25.1273594 C11.3285947,24.485142 10.2823836,24.4869334 9.63766682,25.1273594 L8.63756506,26.119751 C8.63599513,26.1212534 8.63425079,26.1212534 8.632739,26.1230447 L1.45014779,33.2542341 C-0.482258093,35.1745297 -0.484002484,38.3009042 1.448636,40.2245513 L5.74244495,44.5591426 C6.70771756,45.5184236 7.97895156,46 9.2484993,46 C10.5179889,46 11.7874786,45.520215 12.7560654,44.5608762 L19.7432298,37.1084625 C19.7449742,37.1069601 19.7449742,37.1051688 19.7465441,37.1037242 L20.7466459,36.1113326 C21.0573751,35.8024742 21.2311719,35.3868879 21.2311719,34.949979 C21.2311719,34.5145726 21.057317,34.0957502 20.7483902,33.7886832 L17.4865467,30.6076446 L17.9824111,30.1148581 C18.627186,29.4709072 19.6751415,29.4726408 20.3196838,30.1165916 L20.3196838,30.1148581 L20.4851076,30.279024 L20.4851076,30.2808153 L33.1704679,42.9022289 C34.1491721,43.8733558 35.4368032,44.3529097 36.7113514,44.3529097 C37.9528731,44.3529097 39.1809632,43.8961229 40.0885555,42.9895414 L45.0427223,38.7772799 C46.9768726,36.8568687 46.9783263,33.7290496 45.0444667,31.8054025 L43.6954922,30.4648591 L46.5485732,27.6327813 C47.4824474,26.6980008 48,25.4608917 48,24.1434043 L48,24.1434043 Z M41.5314931,25.4771869 C41.2091347,25.7895123 40.7926389,25.9472063 40.3745149,25.9472063 C39.9446456,25.9472063 39.5164044,25.7828094 39.1939879,25.4544198 L22.5298506,8.55331019 C21.8917043,7.90427431 21.901589,6.8662907 22.5545624,6.2303141 C23.2058496,5.59641774 24.2538632,5.60444981 24.8920095,6.25516148 L41.554635,23.1545375 C42.1928394,23.8032267 42.1844665,24.8414993 41.5314931,25.4771869 L41.5314931,25.4771869 Z" id="svg/icon_pay_decorate" fill="#FF4F48" fill-rule="nonzero"></path>
    </g>
</svg>