<?xml version="1.0" encoding="UTF-8"?>
<svg width="48px" height="48px" viewBox="0 0 48 48" version="1.1" xmlns="http://www.w3.org/2000/svg" xmlns:xlink="http://www.w3.org/1999/xlink">
    <!-- Generator: Sketch 53.2 (72643) - https://sketchapp.com -->
    <title>Icon/ToolBar/icon_toolbar_bill_nol</title>
    <desc>Created with Sketch.</desc>
    <g id="Icon/ToolBar/icon_toolbar_bill_nol" stroke="none" stroke-width="1" fill="none" fill-rule="evenodd">
        <path d="M10,12 L10,40 C10,40.5522847 10.4477153,41 11,41 C11.5522847,41 12,40.5522847 12,40 L12,12 L12,8 C12,5.790861 13.790861,4 16,4 L39,4 C41.209139,4 43,5.790861 43,8 L43,40 C43,42.209139 41.209139,44 39,44 L16,44 L9,44 C6.790861,44 5,42.209139 5,40 L5,16 C5,13.790861 6.790861,12 9,12 L10,12 Z M19.5,34 C18.6715729,34 18,34.6715729 18,35.5 C18,36.3284271 18.6715729,37 19.5,37 L35.5,37 C36.3284271,37 37,36.3284271 37,35.5 C37,34.6715729 36.3284271,34 35.5,34 L19.5,34 Z M21.7066667,19.7406555 L26.2933333,19.7406555 L26.2933333,22.1880391 L21.7066667,22.1880391 C20.768,22.1880391 20,22.9746981 20,23.9361702 C20,24.8976423 20.768,25.6843013 21.7066667,25.6843013 L26.2933333,25.6843013 L26.2933333,28.2518689 C26.2933333,29.213341 27.0613333,30 28,30 C28.9386667,30 29.7066667,29.213341 29.7066667,28.2518689 L29.7066667,25.6843013 L34.2933333,25.6843013 C35.232,25.6843013 36,24.8976423 36,23.9361702 C36,22.9746981 35.232,22.1880391 34.2933333,22.1880391 L29.7066667,22.1880391 L29.7066667,19.7406555 L34.2933333,19.7406555 C35.232,19.7406555 36,18.9539965 36,17.9925244 C36,17.0310523 35.232,16.2443933 34.2933333,16.2443933 L31.7226667,16.2443933 L33.9306667,13.9827487 C34.592,13.3053479 34.592,12.1909143 33.9306667,11.5080506 C33.2693333,10.8306498 32.1813333,10.8306498 31.5146667,11.5080506 L28.0213333,15.0862565 L24.5333333,11.5080506 C23.872,10.8306498 22.784,10.8306498 22.1173333,11.5080506 C21.456,12.1854514 21.456,13.299885 22.1173333,13.9827487 L24.3253333,16.2443933 L21.7066667,16.2443933 C20.768,16.2443933 20,17.0310523 20,17.9925244 C20,18.9539965 20.768,19.7406555 21.7066667,19.7406555 Z" id="合并形状" fill="#D4D4D4" fill-rule="nonzero"></path>
    </g>
</svg>