<?xml version="1.0" encoding="UTF-8"?>
<svg width="23px" height="24px" viewBox="0 0 23 24" version="1.1" xmlns="http://www.w3.org/2000/svg" xmlns:xlink="http://www.w3.org/1999/xlink">
    <!-- Generator: Sketch 53.2 (72643) - https://sketchapp.com -->
    <title>svg/icon_pay_excess</title>
    <desc>Created with Sketch.</desc>
    <g id="视觉图" stroke="none" stroke-width="1" fill="none" fill-rule="evenodd">
        <g id="5.3资金-委托支付" transform="translate(-287.000000, -1938.000000)" fill="#999999" fill-rule="nonzero">
            <g id="分组-10-copy" transform="translate(32.000000, 1838.000000)">
                <g id="分组-9" transform="translate(0.000000, 64.000000)">
                    <g id="分组-8" transform="translate(255.000000, 34.000000)">
                        <g id="分组-7" transform="translate(0.000000, 2.000000)">
                            <path d="M8.86341462,21.5695375 L5.94634146,24 L4.88048779,22.6919431 L14.1365854,14.957346 C14.1926829,14.1611374 14.1365854,13.2511848 13.5756097,12.8530806 C12.9585366,12.3981043 11.8926829,12.5687204 11.3878049,12.7393365 L5.89024391,17.1753555 L4.82439024,15.8672986 L6.89999998,14.1962643 L6.89999998,9.13806746 L1.68292682,13.421801 L1.68292682,23.8862559 L2.84217094e-14,23.8862559 L2.84217094e-14,12.5687204 L6.89999998,6.9513141 L6.89999998,1.99052133 C6.89999998,0.909952596 7.79756095,1.42108547e-14 8.86341462,1.42108547e-14 L21.0365854,1.42108547e-14 C22.1585366,1.42108547e-14 23,0.909952596 23,1.99052133 L23,19.6208531 C23,20.7014218 22.1585366,21.6113744 21.0365854,21.6113744 L8.86341462,21.6113744 L8.86341462,21.5695375 Z M10.8609586,19.9052133 L17.2219512,19.9052133 L17.2219512,1.70616113 L8.86341462,1.70616113 C8.69512195,1.70616113 8.5829268,1.81990519 8.58292684,1.99052133 L8.58292684,12.8413716 L10.5463415,11.2606635 L10.6585366,11.2037915 C10.8829269,11.0900474 13.0707317,10.3507109 14.5853659,11.5450237 C15.5390244,12.3412322 15.9317073,13.6492891 15.7634146,15.5260664 L15.7073171,15.8672986 L10.8609586,19.9052133 Z M18.9048781,19.9052133 L21.0365854,19.9052133 C21.204878,19.9052133 21.3170732,19.7914692 21.3170732,19.6208531 L21.3170732,1.99052133 C21.3170732,1.81990523 21.2048781,1.70616113 21.0365854,1.70616113 L18.9048781,1.70616113 L18.9048781,19.9052133 Z" id="svg/icon_pay_excess"></path>
                        </g>
                    </g>
                </g>
            </g>
        </g>
    </g>
</svg>