<?xml version="1.0" encoding="UTF-8"?>
<svg width="32px" height="32px" viewBox="0 0 32 32" version="1.1" xmlns="http://www.w3.org/2000/svg" xmlns:xlink="http://www.w3.org/1999/xlink">
    <!-- Generator: Sketch 53.2 (72643) - https://sketchapp.com -->
    <title>svg/icon_i_set</title>
    <desc>Created with Sketch.</desc>
    <g id="视觉图" stroke="none" stroke-width="1" fill="none" fill-rule="evenodd">
        <g id="7我的主页" transform="translate(-42.000000, -924.000000)" fill="#D4D4D4">
            <g id="Rows/单行列表" transform="translate(32.000000, 884.000000)">
                <g id="Icon/Support/设置/Outline" transform="translate(10.000000, 40.000000)">
                    <path d="M18.9811112,0.000147654865 C20.2971097,-0.014348564 21.3736086,1.04037633 21.3876085,2.35553329 L21.3876085,2.63496041 C21.3876085,4.00010433 22.5141073,5.11531345 23.8976058,5.11531345 C24.3376053,5.11531345 24.7736048,4.99784409 25.1491044,4.78290015 L25.4031041,4.63643835 C25.7716037,4.42549338 26.1936033,4.31452232 26.6151028,4.31452232 C27.4701019,4.31452232 28.267101,4.76140576 28.6996005,5.48721644 L31.6745972,10.5169045 C32.3435965,11.6466099 31.9465969,13.0872341 30.7950982,13.7375645 L30.5485985,13.8770281 C29.3325998,14.5633491 28.9146003,16.0649574 29.6045995,17.2301535 C29.8225993,17.5985574 30.1370989,17.9059772 30.5125985,18.1164223 L30.7630982,18.2558859 C31.918097,18.899718 32.3220965,20.3473404 31.6495973,21.4805448 L28.6751005,26.5067338 C28.3496009,27.0500921 27.8241015,27.4434895 27.2091021,27.6004486 C26.5971028,27.7579075 25.9466035,27.679428 25.3961041,27.3715083 L25.1456044,27.2320447 C24.3626053,26.7961584 23.4116063,26.7891602 22.6211072,27.2180483 C22.2386076,27.4289933 21.917108,27.7364131 21.6951082,28.1118152 C21.4771084,28.4832183 21.3591086,28.9016092 21.3626086,29.3200001 L21.3626086,29.5984274 C21.3666086,30.2352613 21.1051088,30.8391038 20.6476093,31.2824882 C20.1971098,31.7188743 19.5891105,31.961811 18.9601112,31.961811 L13.0131177,31.961811 C11.7046192,31.9723082 10.6286204,30.9250814 10.6106204,29.6199218 L10.6071204,29.3414944 C10.6036204,28.6831662 10.3351207,28.0548301 9.86312119,27.5969495 C9.05862207,26.8106546 7.82862342,26.6496966 6.8491245,27.2070512 L6.59862478,27.353513 C6.23062518,27.5609589 5.81212564,27.6719299 5.3901261,27.6719299 C4.53562704,27.6719299 3.74162791,27.2285456 3.30912839,26.4992358 L0.327131662,21.4630494 C0.00913201079,20.9226904 -0.0768678948,20.2758591 0.0876319246,19.6720166 C0.252131744,19.0676742 0.652631304,18.5528085 1.2031307,18.2488878 L1.44613043,18.109924 C2.0251298,17.7875081 2.45462933,17.2446497 2.62962913,16.6043167 C2.80512894,15.9824789 2.71562904,15.3141532 2.3831294,14.7602977 C2.16112965,14.3883947 1.84313,14.0809749 1.46413041,13.8700299 L1.21763068,13.7305663 C0.663131293,13.4301447 0.252131744,12.915279 0.0841319284,12.3079374 C-0.0838678871,11.7000959 0.00163201903,11.0492657 0.323631665,10.5064073 L3.2986284,5.47671918 C3.62012805,4.93685999 4.14912747,4.53996352 4.76462679,4.38250459 C5.37612612,4.22554553 6.0266254,4.30752415 6.5771248,4.61494396 L6.83112452,4.75440758 C7.61412366,5.19429285 8.56912261,5.20129102 9.35912174,4.77240289 C9.74512132,4.56145791 10.067121,4.25053901 10.2891207,3.87513693 C10.5071205,3.50323393 10.6211204,3.08184384 10.6176204,2.65595493 L10.6176204,2.37402847 C10.6106204,1.73719457 10.8681201,1.12985299 11.3256196,0.686468639 C11.7761191,0.246583376 12.3876184,0.00364674219 13.0241177,0.00364674219 L18.9811112,0.00364674219 L18.9811112,0.000147654865 Z M16.1066667,21.5466667 C19.1110957,21.5466667 21.5466667,19.1110957 21.5466667,16.1066667 C21.5466667,13.1022376 19.1110957,10.6666667 16.1066667,10.6666667 C13.1022376,10.6666667 10.6666667,13.1022376 10.6666667,16.1066667 C10.6666667,19.1110957 13.1022376,21.5466667 16.1066667,21.5466667 Z" id="svg/icon_i_set"></path>
                </g>
            </g>
        </g>
    </g>
</svg>