<?xml version="1.0" encoding="UTF-8"?>
<svg width="47px" height="48px" viewBox="0 0 47 48" version="1.1" xmlns="http://www.w3.org/2000/svg" xmlns:xlink="http://www.w3.org/1999/xlink">
    <!-- Generator: Sketch 53.2 (72643) - https://sketchapp.com -->
    <title>svg/icon_pay_material</title>
    <desc>Created with Sketch.</desc>
    <g id="icon" stroke="none" stroke-width="1" fill="none" fill-rule="evenodd">
        <path d="M16.1886448,39.7195791 C16.1886448,35.146429 19.8656864,31.4391584 24.4015471,31.4391584 C28.9374077,31.4391584 32.6144493,35.146429 32.6144493,39.7195791 C32.6144494,42.6778885 31.049079,45.4114792 28.5079982,46.8906339 C25.9669174,48.3697887 22.8361767,48.3697887 20.2950959,46.8906339 C17.7540151,45.4114792 16.1886448,42.6778885 16.1886448,39.7195791 Z M15.5217516,32.5667643 C15.8131303,33.1470598 16.0370128,33.7532134 16.185955,34.3748189 C14.8473517,36.4618896 14.3711245,38.9461672 14.7554592,41.3172364 C14.5304508,41.6164345 14.2910548,41.9081274 14.020319,42.1810889 C10.8130259,45.4148123 5.61287237,45.4148123 2.40551673,42.1810889 C-0.80183891,38.9474285 -0.80183891,33.7045244 2.40551673,30.470801 C4.06871513,28.7939293 6.26756751,27.9945331 8.44677778,28.0567819 C8.82548258,28.658773 9.27268453,29.2295451 9.79351309,29.7546554 C11.4005376,31.3748282 13.4279907,32.3103899 15.5217516,32.5667643 Z M7.31410389,25.5218602 C7.40760633,25.85083 7.51810323,26.1746464 7.64514218,26.4919835 C7.14501914,26.5213104 6.64645997,26.5845684 6.15465668,26.6908392 L7.31410389,25.5218602 Z M44.5960085,19.3590984 C47.6188284,22.4067691 47.7899775,27.2375821 45.1148979,30.4907307 L45.1424844,30.518544 L44.5961961,31.0693233 L44.5960085,31.0695756 L44.5957583,31.0697648 L33.9581194,41.7948559 C34.6302047,38.634103 33.7510016,35.2051819 31.3151303,32.7492852 C29.1666343,30.5830633 26.266859,29.6358339 23.4613533,29.907471 C23.5143369,29.8563222 23.5685717,29.8072548 23.6206795,29.7547185 C25.0030083,28.3609625 25.8822115,26.6532502 26.2636061,24.8595123 C26.3888636,24.270016 26.4605144,23.6702269 26.4776676,23.0676033 L26.4779803,23.0532236 C26.48336,22.8561338 26.4829847,22.6589809 26.4767292,22.4619542 L26.4766041,22.4557735 C26.4635767,22.0559824 26.4265601,21.6573529 26.3657576,21.2620715 C26.3646942,21.2550078 26.3633805,21.2480071 26.3622545,21.2410065 C26.333913,21.0610196 26.3006422,20.881857 26.2624802,20.7037239 C26.2199188,20.5033885 26.1711861,20.3044366 26.1163529,20.1071567 C26.1119115,20.0912003 26.1080332,20.0751178 26.1035292,20.0592245 C25.9978702,19.6880175 25.8705374,19.3234328 25.7221972,18.9673785 C25.7054951,18.9272037 25.6878547,18.8874704 25.6705897,18.8475479 C25.611872,18.7114463 25.5500728,18.5767172 25.4852408,18.4434665 C25.4635344,18.3988138 25.4420782,18.354035 25.4196212,18.3096346 C25.3452649,18.1625611 25.2672557,18.0173942 25.1856674,17.8742711 C25.1727812,17.8516925 25.1610209,17.8286094 25.1479471,17.8060938 C25.0513577,17.640103 24.9499336,17.4770205 24.8438072,17.3170588 C24.819411,17.2801636 24.7931381,17.2442144 24.7681788,17.2076346 C24.6852211,17.0858184 24.5995625,16.9658946 24.5112676,16.8479536 C24.3902938,16.6875218 24.2646719,16.5307073 24.1345646,16.3777131 C24.0964689,16.3329343 24.0591864,16.2876509 24.0201524,16.2433766 C23.8912387,16.0962567 23.7580439,15.9530073 23.6207421,15.8138155 C23.4240708,15.6154643 23.2190172,15.4309882 23.0103355,15.2533236 C22.9588532,15.2094278 22.9066827,15.1667302 22.8545123,15.1240327 C22.6605934,14.9657302 22.463109,14.8140498 22.2604325,14.6729651 C22.2426044,14.6605405 22.2254645,14.6468546 22.2075739,14.6345562 C21.977712,14.4772943 21.7412684,14.3300407 21.4988943,14.1932012 C21.4663034,14.1747851 21.4332746,14.1576304 21.4005586,14.1395297 C21.179654,14.0175198 20.9541652,13.9041431 20.724595,13.7996523 C18.8091769,12.9304389 16.6741927,12.711275 14.6488664,13.1490352 L25.8332313,1.8727863 L25.8608179,1.90059962 C29.0873152,-0.79647189 33.8786753,-0.623915823 36.9015577,2.4237548 C39.9243777,5.47142542 40.0955267,10.3022385 37.4204471,13.5552609 L37.4480336,13.5830742 L30.6797645,20.4069855 C30.7445083,20.78729 30.7914242,21.1701172 30.8034347,21.5547735 L33.5276821,18.8081299 L33.5552686,18.8359433 C36.7817659,16.1388717 41.5731885,16.3113647 44.5960085,19.3590984 Z M8.49419408,22.7841724 C8.49419408,18.2110223 12.1712357,14.5037516 16.7070963,14.5037516 C21.242957,14.5037516 24.9199986,18.2110223 24.9199986,22.7841724 C24.9199986,27.3573225 21.242957,31.0645931 16.7070963,31.0645931 C12.1712357,31.0645931 8.49419408,27.3573225 8.49419408,22.7841724 Z" id="svg/icon_pay_material" fill="#FF4F48" fill-rule="nonzero"></path>
    </g>
</svg>