<?xml version="1.0" encoding="UTF-8"?>
<svg width="47px" height="48px" viewBox="0 0 47 48" version="1.1" xmlns="http://www.w3.org/2000/svg" xmlns:xlink="http://www.w3.org/1999/xlink">
    <!-- Generator: Sketch 53.2 (72643) - https://sketchapp.com -->
    <title>svg/icon_pay_home</title>
    <desc>Created with Sketch.</desc>
    <g id="icon" stroke="none" stroke-width="1" fill="none" fill-rule="evenodd">
        <path d="M46.4088993,16.4965987 L26.5514713,1.00184962 C24.842566,-0.334822224 22.1603768,-0.333077238 20.452342,1.00184962 L0.595784642,16.4965987 C-0.0832505961,17.0262069 -0.199034826,18.0007907 0.337228917,18.6691267 C0.872622085,19.3392076 1.83632979,19.4535053 2.51449445,18.9247695 L3.49996612,18.3349587 L3.49996612,43.6374939 C3.49996612,46.2933876 5.96799804,48 8.46127613,48 L39.7970112,48 C42.2598198,48.0000001 43.545634,46.4129203 43.545634,43.6374939 L43.545634,18.3349587 L44.4414382,18.9247696 C44.7304634,19.1490024 45.08391,19.2571925 45.4242982,19.2571925 C45.8865645,19.2571925 46.3505719,19.0565173 46.6587494,18.6691267 C47.1958837,17.9999183 47.088805,17.0262069 46.4088993,16.4965987 Z M28.7461481,44.5099952 L18.2994521,44.5099952 L18.2994521,31.422477 C18.2994521,29.622507 20.2921594,27.0599709 23.5228001,27.0599709 C26.7534408,27.0599709 28.7461481,29.6233795 28.7461481,31.422477 L28.7461481,44.5099952 Z" id="svg/icon_pay_home" fill="#FF4F48" fill-rule="nonzero"></path>
    </g>
</svg>