<?xml version="1.0" encoding="UTF-8"?>
<svg width="30px" height="36px" viewBox="0 0 30 36" version="1.1" xmlns="http://www.w3.org/2000/svg" xmlns:xlink="http://www.w3.org/1999/xlink">
    <!-- Generator: Sketch 53.2 (72643) - https://sketchapp.com -->
    <title>svg/icon_i_credit</title>
    <desc>Created with Sketch.</desc>
    <g id="视觉图" stroke="none" stroke-width="1" fill="none" fill-rule="evenodd">
        <g id="7我的主页" transform="translate(-43.000000, -810.000000)" fill="#D4D4D4" fill-rule="nonzero">
            <g id="Rows/单行列表" transform="translate(32.000000, 772.000000)">
                <g id="Bg/白色_下划线">
                    <g id="信用" transform="translate(11.000000, 38.000000)">
                        <path d="M30,20.5025566 C30,27.7078159 19.4117647,36 15,36 C10.5882353,36 2.00728323e-13,27.7253469 2.00728323e-13,20.5025566 L2.00728323e-13,5.46092037 C2.74885143,5.16498026 5.445962,4.50766277 8.02058822,3.50620893 C10.451191,2.54816484 12.7900419,1.37469262 15.0088235,1.20792265e-13 C17.2275582,1.37477545 19.5664168,2.54825152 21.9970588,3.50620893 C24.5660288,4.50626029 27.25712,5.163557 30,5.46092037 L30,20.5025566 Z M12.2647059,25.3323594 L12.2647059,25.3674215 L14.5235294,25.3674215 L14.5235294,24.5785245 L19.9676471,24.5785245 L19.9676471,25.3674215 L22.2882353,25.3674215 L22.2882353,19.3455077 L12.2647059,19.3455077 L12.2647059,25.3323594 Z M14.5235294,22.7027027 L14.5235294,21.2739225 L19.9676471,21.2739225 L19.9676471,22.7027027 L14.5235294,22.7027027 Z M18.3088236,9.70343315 L15.5382353,9.90504015 L16.0058823,11.3425858 L11.7617647,11.3425858 C11.8058823,11.211103 11.8764706,11.0357925 11.9647059,10.8166545 C11.9860948,10.6364595 12.0305726,10.4597179 12.0970588,10.2907231 L9.70588234,9.70343315 C9.04960341,12.1442629 8.09546988,14.4962533 6.86470588,16.7070855 C6.90588237,17.0927684 6.99411766,17.6771366 7.12941177,18.4601899 C7.21764705,19.1146822 7.28529411,19.5938641 7.33235294,19.8977356 C7.46097858,19.7587785 7.57345129,19.6058803 7.66764706,19.4419284 C8.07941176,18.8283419 8.37352941,18.3696129 8.55,18.0657414 L8.55,25.3323594 L10.8705882,25.3323594 L10.8705882,13.7443389 C11.0058823,13.4404675 11.1617647,13.0489408 11.3382353,12.5697589 C11.5147059,12.090577 11.6470588,11.7195033 11.7352941,11.4565376 L11.7352941,13.376187 L23.0205883,13.376187 L23.0205883,11.3425858 L18.7058824,11.3425858 L18.3088236,9.70343315 Z M12.3529412,18.5215486 L22.2264706,18.4689554 L22.2264706,16.715851 L12.3529412,16.715851 L12.3529412,18.5215486 Z M12.3529412,15.9707816 L22.2264706,15.9707816 L22.2264706,14.2176771 L12.3529412,14.2176771 L12.3529412,15.9707816 Z" id="svg/icon_i_credit"></path>
                    </g>
                </g>
            </g>
        </g>
    </g>
</svg>