<?xml version="1.0" encoding="UTF-8"?>
<svg width="48px" height="48px" viewBox="0 0 48 48" version="1.1" xmlns="http://www.w3.org/2000/svg" xmlns:xlink="http://www.w3.org/1999/xlink">
    <!-- Generator: Sketch 53.2 (72643) - https://sketchapp.com -->
    <title>Icon/ToolBar/icon_toolbar_home_nol</title>
    <desc>Created with Sketch.</desc>
    <g id="Icon/ToolBar/icon_toolbar_home_nol" stroke="none" stroke-width="1" fill="none" fill-rule="evenodd">
        <path d="M26.4908383,2.91503529 C25.1455609,1.69498824 23.0937651,1.69498824 21.7484876,2.91503529 L2.57212973,21.1199654 C1.85750745,21.7764474 1.80530926,22.8859757 2.45514399,23.6066223 C3.10497872,24.3272689 4.21419581,24.3899419 4.94110345,23.7470839 L5.24603176,23.4576276 L5.24603176,42.4582874 C5.24486298,43.3972029 5.61710461,44.2980629 6.28074424,44.9623897 C6.94438386,45.6267165 7.84496843,46.0000006 8.78408079,45.9999998 L19.0800897,45.9999998 L19.0800897,35.3506495 C19.0792128,34.6893268 19.341438,34.0548059 19.8089554,33.5869733 C20.2764727,33.1191407 20.9108943,32.85641 21.5723557,32.8567029 L26.4170831,32.8567029 C27.0785445,32.85641 27.7129661,33.1191407 28.1804835,33.5869733 C28.6480008,34.0548059 28.9102261,34.6893268 28.9093491,35.3506495 L28.9093491,45.9999998 L39.449741,45.9999998 C40.3890441,46.0002927 41.2899117,45.6271376 41.9537895,44.9627792 C42.6176673,44.2984207 42.9900599,43.3973936 42.9888909,42.4582874 L42.9888909,23.689853 C43.7748794,24.400837 44.8900143,24.3469078 45.5439039,23.6183144 C45.8584041,23.2701121 46.0216411,22.8112451 45.9976925,22.3426935 C45.9737439,21.8741419 45.7645721,21.4343016 45.4162083,21.1199654 L26.4908383,2.91613588 L26.4908383,2.91503529 Z" id="Path" fill="#D4D4D4" fill-rule="nonzero"></path>
    </g>
</svg>