<?xml version="1.0" encoding="UTF-8"?>
<svg width="39px" height="48px" viewBox="0 0 39 48" version="1.1" xmlns="http://www.w3.org/2000/svg" xmlns:xlink="http://www.w3.org/1999/xlink">
    <!-- Generator: Sketch 53.2 (72643) - https://sketchapp.com -->
    <title>svg/icon_pay_water</title>
    <desc>Created with Sketch.</desc>
    <g id="icon" stroke="none" stroke-width="1" fill="none" fill-rule="evenodd">
        <path d="M21.1816096,0.668288874 C20.2426566,-0.220268514 18.7632583,-0.223100674 17.8208311,0.661855 C11.7598773,6.3526301 0,16.9251187 0,28.7232633 C0,39.3697417 8.73021403,48 19.5,48 C30.269786,48 39,39.3697417 39,28.7232633 C39,16.8873197 27.3906296,6.50784769 21.1816096,0.668288874 Z M26.1556594,27.0102403 L18.7759398,37.2232353 C18.3162835,37.8601904 17.3001586,37.5384959 17.3001585,36.7559741 L17.3001585,30.4073338 C17.3001585,29.9631665 16.9359194,29.6030977 16.4866077,29.6030977 L13.5057574,29.6030977 C13.2010402,29.6031267 12.9218541,29.4348201 12.7823683,29.1670043 C12.6428826,28.8991886 12.6664863,28.5767712 12.843527,28.3316003 L20.2232467,18.1186052 C20.6829029,17.4816502 21.6990279,17.8033447 21.6990279,18.5858664 L21.6990279,24.9337025 C21.6990279,25.1469992 21.7847411,25.3515598 21.9373114,25.5023834 C22.0898818,25.6532069 22.2968117,25.7379387 22.5125788,25.7379387 L25.4942426,25.7379387 C26.1556594,25.7387429 26.5404689,26.4778359 26.1556594,27.0102403 L26.1556594,27.0102403 Z" id="svg/icon_pay_water" fill="#FF4F48" fill-rule="nonzero"></path>
    </g>
</svg>