<?xml version="1.0" encoding="UTF-8"?>
<svg width="39px" height="48px" viewBox="0 0 39 48" version="1.1" xmlns="http://www.w3.org/2000/svg" xmlns:xlink="http://www.w3.org/1999/xlink">
    <!-- Generator: Sketch 53.2 (72643) - https://sketchapp.com -->
    <title>svg/icon_pay_wage</title>
    <desc>Created with Sketch.</desc>
    <g id="icon" stroke="none" stroke-width="1" fill="none" fill-rule="evenodd">
        <path d="M17.6826609,28.8541024 L17.6826609,31.6277057 L13.8186641,31.6277057 C12.9906648,31.6277057 12.1626655,32.4597868 12.1626655,33.2918677 C12.1626655,34.1239487 12.9906648,34.9560297 13.8186641,34.9560298 L17.4066612,34.9560298 L17.4066612,38.8390744 C17.4066612,39.6711554 18.2346605,40.5032364 19.0626598,40.5032364 C19.890659,40.5032364 20.7186584,39.6711554 20.7186584,38.8390744 L20.7186584,34.9560298 L25.1346547,34.9560298 C25.9626541,34.9560298 26.7906533,34.1239487 26.7906533,33.2918677 C26.7906533,32.4597867 25.962654,31.6277057 25.1346547,31.6277057 L20.7186584,31.6277057 L20.7186584,28.8541024 L25.1346547,28.8541024 C25.9626541,28.8541024 26.7906533,28.0220214 26.7906533,27.1899404 C26.7906533,26.3578595 25.962654,25.5257784 25.1346547,25.5257784 L22.9266566,25.5257784 L26.2386538,23.0295354 C27.0666531,22.4748147 27.0666531,21.6427338 26.5146536,20.8106527 C25.962654,20.2559321 24.858655,20.2559321 24.3066554,20.8106527 L19.6146593,24.1389768 L14.9226632,20.8106527 C14.0946639,20.2559321 13.2666646,20.2559321 12.7146651,21.0880131 C12.1626655,21.6427338 12.4386653,22.7521751 12.9906648,23.3068957 L16.3026621,25.8031387 L13.8186641,25.8031387 C12.9906648,25.8031387 12.1626655,26.6352198 12.1626655,27.4673008 C12.1626655,28.2993818 12.9906648,29.1314627 13.8186641,29.1314627 L17.6826609,29.1314627 L17.6826609,28.8541024 Z M12.4386653,7.21999646 L7.74666919,3.61431211 C6.09067058,2.22751047 6.36667036,1.11806911 8.85066824,1.11806911 L11.8866657,1.39542945 C12.4386653,1.39542945 13.2666646,1.11806911 13.5426643,0.840708774 L12.9906648,1.39542945 C14.6466634,-0.26873253 17.1306614,-0.546092869 18.78666,1.11806911 L18.5106602,0.840708774 C18.78666,1.11806911 19.6146593,1.11806911 19.8906591,0.840708774 L19.3386595,1.39542945 C20.9946581,-0.26873253 23.7546559,-0.546092869 25.4106545,1.11806911 L24.858655,0.840708774 C25.1346547,1.11806911 25.9626541,1.39542945 26.5146536,1.39542945 L28.7226517,0.840708774 C30.9306499,0.285988098 31.4826494,1.11806911 29.8266508,2.78223114 L25.962654,6.94263612 C25.4106545,7.77471714 23.7546559,8.6067981 22.6506568,8.6067981 L15.7506625,8.6067981 C14.6466634,8.6067981 13.2666646,8.05207742 12.4386653,7.21999646 Z M11.3346662,13.0445634 C12.1626655,12.2124824 13.8186641,11.6577618 14.9226632,11.6577618 L23.2026564,11.6577618 C24.3066555,11.6577618 25.9626541,12.2124825 26.7906533,13.0445634 C26.7906533,13.0445634 40.0386424,23.0295354 38.9346433,32.4597868 C37.8306441,41.8900381 33.4146478,47.7146051 20.1666589,47.9919654 C6.91866986,48.2693257 0.570675157,41.3353174 0.0186756051,31.9050661 C-0.533323947,22.4748148 11.3346662,13.0445634 11.3346662,13.0445634 Z" id="svg/icon_pay_wage" fill="#FF4F48" fill-rule="nonzero"></path>
    </g>
</svg>