<?xml version="1.0" encoding="UTF-8"?>
<svg width="48px" height="48px" viewBox="0 0 48 48" version="1.1" xmlns="http://www.w3.org/2000/svg" xmlns:xlink="http://www.w3.org/1999/xlink">
    <!-- Generator: Sketch 53.2 (72643) - https://sketchapp.com -->
    <title>Icon/ToolBar/icon_toolbar_money_nol</title>
    <desc>Created with Sketch.</desc>
    <g id="Icon/ToolBar/icon_toolbar_money_nol" stroke="none" stroke-width="1" fill="none" fill-rule="evenodd">
        <path d="M43.642529,40.5843809 C43.642529,41.1807891 43.5215166,41.7771973 43.285058,42.2560137 C43.0458369,42.732 42.8065746,43.2079863 42.4519072,43.6868027 C42.0667612,44.0703978 41.6243267,44.3924676 41.1402731,44.6416055 C40.6645934,44.8796191 40.070705,45 39.4739716,45 L8.40545236,45 C7.80871902,45 7.21483061,44.8796191 6.7391509,44.6416055 C6.14241757,44.4035918 5.66958278,44.1656191 5.30926684,43.6896328 C4.89828035,43.2804111 4.57468139,42.7927745 4.35790741,42.2560137 C4.11390125,41.7326338 3.99171203,41.1612434 4.0004364,40.5843809 L4.0004364,16.8404355 C4.0004364,15.6476191 4.47896103,14.5723945 5.30926684,13.7380137 C6.11951543,12.9005784 7.23704533,12.426596 8.40545236,12.4248164 L39.5921803,12.4248164 C40.785647,12.4248164 41.8552151,12.9008027 42.6883659,13.7408027 C43.5215166,14.5751836 44,15.6476191 44,16.8403945 L44,23.2832109 L32.9270157,23.2832109 C31.736394,23.2832109 30.6668259,23.6416055 29.8308715,24.4759863 C29.0005244,25.3131973 28.522041,26.268 28.522041,27.5784082 C28.522041,28.4156191 28.7612621,29.1296191 29.0005244,29.7259863 C29.2369418,30.3252246 29.7126215,30.8012109 30.3093549,31.1596055 C30.9032433,31.6355918 31.736394,31.8736055 32.8087658,31.8736055 L43.6425702,31.8736055 L43.6425702,40.5843809 L43.642529,40.5843809 Z M37.213823,10.2799863 L15.6673091,10.2799863 C17.3336105,9.44560547 18.999912,8.49080273 20.5479635,7.65638086 L24.4744961,5.50605469 C25.7861302,4.78922461 26.7375309,4.31323828 27.5706816,3.83442188 C28.6401672,3.23801367 29.7125803,3 30.5457723,3 C31.378923,3 32.2120737,3.23801367 32.808807,3.47598633 C33.5237491,3.83438086 34.1176375,4.31319727 34.593276,4.90960547 L37.2109781,10.2771973 L37.213823,10.2799863 Z M30.7849933,27.5839863 C30.7849933,26.9847891 31.0242557,26.5088027 31.3788818,26.0299863 C31.7997265,25.6423143 32.3534246,25.4290148 32.9269745,25.4336191 C33.5237078,25.4336191 33.9965426,25.6743809 34.4750673,26.0299863 C34.8325383,26.3883809 35.0717594,26.9848301 35.0717594,27.5811973 C35.0717594,28.1775645 34.8325383,28.6563809 34.4750673,29.1324082 C34.1175963,29.6083945 33.5237078,29.7287754 32.9269745,29.7287754 C32.3330861,29.7287754 31.8574064,29.4908027 31.3788818,29.1324082 C30.9722677,28.7202592 30.7570055,28.1580035 30.7849933,27.5811973 L30.7849933,27.5839863 Z" id="Shape" fill="#D4D4D4" fill-rule="nonzero"></path>
    </g>
</svg>