<?xml version="1.0" encoding="UTF-8"?>
<svg width="32px" height="26px" viewBox="0 0 32 26" version="1.1" xmlns="http://www.w3.org/2000/svg" xmlns:xlink="http://www.w3.org/1999/xlink">
    <!-- Generator: Sketch 53.2 (72643) - https://sketchapp.com -->
    <title>svg/icon_pay_card</title>
    <desc>Created with Sketch.</desc>
    <g id="视觉图" stroke="none" stroke-width="1" fill="none" fill-rule="evenodd">
        <g id="3付款" transform="translate(-80.000000, -1017.000000)" fill="#FF5E3B" fill-rule="nonzero">
            <g id="分组-6" transform="translate(32.000000, 232.000000)">
                <g id="分组-5" transform="translate(32.000000, 766.000000)">
                    <g id="分组-2">
                        <path d="M16,25.0000109 L16.0000356,20.9999918 C16.0000356,19.8953844 16.8954147,19 18.0000156,19 L45.9999489,19 C47.1045497,19 47.9999289,19.8953844 47.9999289,20.9999918 L47.9999289,25.0000109 L16,25.0000109 L16,25.0000109 Z M48,26.9999672 L47.9999644,43.0000082 C47.9999644,44.1046156 47.1045853,45 45.9999844,45 L18.0000511,45 C16.8954503,45 16.0000711,44.1046156 16.0000711,43.0000082 L16.0000711,26.9999672 L48,26.9999672 L48,26.9999672 Z M32.9999722,36.9999617 L34.9999522,36.9999617 C35.5521637,36.9999617 35.9999422,36.5521806 35.9999422,35.9999658 C35.9999422,35.4475732 35.5521637,34.9999699 34.9999522,34.9999699 L32.9999722,34.9999699 C32.4475829,34.9999699 31.9999822,35.4475732 31.9999822,35.9999658 C31.9999822,36.5522161 32.4476185,36.9999617 32.9999722,36.9999617 Z M19.0000056,41.0000164 L26.9999967,41.0000164 C27.5522082,41.0000164 27.9999867,40.5522353 27.9999867,40.0000205 C27.9999867,39.4476279 27.5522082,39.0000246 26.9999967,39.0000246 L19.0000056,39.0000246 C18.447794,39.0000246 18.0000156,39.4476279 18.0000156,40.0000205 C18.0000156,40.5522709 18.447794,41.0000164 19.0000056,41.0000164 Z M19.0000056,36.9999617 L28.9999767,36.9999617 C29.5521882,36.9999617 29.9999667,36.5521806 29.9999667,35.9999658 C29.9999667,35.4475732 29.5521882,34.9999699 28.9999767,34.9999699 L19.0000056,34.9999699 C18.447794,34.9999699 18.0000156,35.4475732 18.0000156,35.9999658 C18.0000156,36.5522161 18.447794,36.9999617 19.0000056,36.9999617 Z" id="svg/icon_pay_card"></path>
                    </g>
                </g>
            </g>
        </g>
    </g>
</svg>