<?xml version="1.0" encoding="UTF-8"?>
<svg width="47px" height="48px" viewBox="0 0 47 48" version="1.1" xmlns="http://www.w3.org/2000/svg" xmlns:xlink="http://www.w3.org/1999/xlink">
    <!-- Generator: Sketch 53.2 (72643) - https://sketchapp.com -->
    <title>svg/icon_pay_life</title>
    <desc>Created with Sketch.</desc>
    <g id="icon" stroke="none" stroke-width="1" fill="none" fill-rule="evenodd">
        <path d="M46.4088993,16.4965987 C47.088805,17.0262069 47.1958837,17.9999183 46.6587494,18.6691267 C46.3505719,19.0565173 45.8865645,19.2571925 45.4242982,19.2571925 C45.08391,19.2571925 44.7304634,19.1490024 44.4414382,18.9247696 L43.545634,18.3349587 L43.545634,43.6374939 C43.545634,46.4129203 42.2598198,48.0000001 39.7970112,48 L8.46127613,48 C5.96799804,48 3.49996612,46.2933876 3.49996612,43.6374939 L3.49996612,18.3349587 L2.51449445,18.9247695 C1.83632979,19.4535053 0.872622085,19.3392076 0.337228917,18.6691267 C-0.199034826,18.0007907 -0.0832505961,17.0262069 0.595784642,16.4965987 L20.452342,1.00184962 C22.1603768,-0.333077238 24.842566,-0.334822224 26.5514713,1.00184962 L46.4088993,16.4965987 Z M24.4917185,12.3898352 C23.937977,11.87151 23.0655113,11.8698579 22.5097209,12.3860821 C18.9353123,15.7057009 12,21.8729859 12,28.7552369 C12,34.9656826 17.1485878,40 23.5,40 C29.8514122,40 35,34.9656827 35,28.7552369 C35,21.8509365 28.1534482,15.7962445 24.4917185,12.3898352 Z M27.4251325,27.7559735 L23.0729901,33.7135539 C22.8019108,34.0851111 22.2026576,33.8974559 22.2026576,33.4409849 L22.2026576,29.7376114 C22.2026576,29.4785138 21.9878499,29.2684737 21.7228712,29.2684737 L19.9649339,29.2684737 C19.7852288,29.2684906 19.6205806,29.1703117 19.5383198,29.0140858 C19.456059,28.85786 19.4699791,28.6697832 19.5743877,28.5267669 L23.9265301,22.5691864 C24.1976094,22.1976293 24.7968626,22.3852844 24.7968626,22.8417554 L24.7968626,26.5446598 C24.7968626,26.6690829 24.8474114,26.7884099 24.9373888,26.8763903 C25.0273662,26.9643707 25.1494018,27.0137976 25.276649,27.0137976 L27.0350661,27.0137976 C27.4251325,27.0142667 27.6520714,27.4454043 27.4251325,27.7559735 Z" id="svg/icon_pay_life" fill="#FF4F48" fill-rule="nonzero"></path>
    </g>
</svg>