<?xml version="1.0" encoding="UTF-8"?>
<svg width="48px" height="48px" viewBox="0 0 48 48" version="1.1" xmlns="http://www.w3.org/2000/svg" xmlns:xlink="http://www.w3.org/1999/xlink">
    <!-- Generator: Sketch 53.2 (72643) - https://sketchapp.com -->
    <title>svg/icon_pay_phone</title>
    <desc>Created with Sketch.</desc>
    <g id="icon" stroke="none" stroke-width="1" fill="none" fill-rule="evenodd">
        <path d="M32.2319153,6.02693543e-05 L32.2319153,-1.0658141e-13 C40.9323504,-1.0658141e-13 48,6.24010815 48,13.9340939 C48,21.627236 40.9322902,27.8687906 32.2093147,27.8681276 C29.4660717,27.8723039 26.7606239,27.2285098 24.313279,25.9891702 C24.2028677,25.920644 24.0232083,25.8993689 23.7996736,25.8993689 C21.9200898,25.8993689 16.8444242,27.8681276 16.8444242,27.8681276 C16.8444242,27.8681276 19.4384872,22.1868369 18.7445594,21.1794949 C17.2908306,19.0770588 16.44123,16.5954078 16.44123,13.9340939 C16.44123,6.24016842 23.5089399,6.02693543e-05 32.2319153,6.02693543e-05 Z M25.1182811,15.9459453 C26.2147401,15.9459453 27.0870015,15.0524521 27.0870015,13.9559717 C27.0870015,12.8594913 26.2154633,11.9659379 25.1182811,11.9659379 C24.0232083,11.9659379 23.1509469,12.8594913 23.1509469,13.9559717 C23.1509469,15.0524521 24.0232083,15.9459453 25.1182811,15.9459453 Z M32.6111227,15.9459453 C33.7075817,15.9459453 34.5798431,15.0524521 34.5798431,13.9559717 C34.5798431,12.8594913 33.7083049,11.9659379 32.6111227,11.9659379 C31.5167128,11.9659379 30.6437885,12.8594913 30.6437885,13.9559717 C30.6437885,15.0524521 31.5167128,15.9459453 32.6111227,15.9459453 Z M39.7247569,15.9459453 C40.820553,15.9459453 41.6927541,15.0524521 41.6927541,13.9559717 C41.6927541,12.8594913 40.7985551,11.9659379 39.7247569,11.9659379 C38.6509587,11.9659379 37.7560968,12.8594913 37.7560968,13.9559717 C37.7560968,15.0524521 38.6282979,15.9459453 39.7247569,15.9459453 Z M17.9360617,37.5986751 C20.6268552,36.0331184 22.4268247,34.5327731 26.0947462,39.5605632 C29.7612815,44.5924516 25.4933903,46.1298625 22.8917937,47.6446725 C19.890378,49.382238 11.656961,44.7522256 5.26401376,33.6447041 C-1.13170586,22.5324817 -1.01858249,13.0597061 1.99723728,11.3221407 C4.59889411,9.82107211 8.06588148,6.89161987 10.5673726,12.5852658 C13.0702499,18.2884343 10.8807069,19.1038183 8.18931072,20.6535243 C6.31454842,21.742471 8.40392571,26.3375873 10.7682464,30.4519351 C13.1326274,34.5677293 16.0599133,38.6848494 17.9360617,37.5986751 Z" id="svg/icon_pay_phone" fill="#FF4F48" fill-rule="nonzero"></path>
    </g>
</svg>