<?xml version="1.0" encoding="UTF-8"?>
<svg width="48px" height="39px" viewBox="0 0 48 39" version="1.1" xmlns="http://www.w3.org/2000/svg" xmlns:xlink="http://www.w3.org/1999/xlink">
    <!-- Generator: Sketch 53.2 (72643) - https://sketchapp.com -->
    <title>svg/icon_pay_eat</title>
    <desc>Created with Sketch.</desc>
    <g id="icon" stroke="none" stroke-width="1" fill="none" fill-rule="evenodd">
        <path d="M2.98830506,29.982727 L45.0133351,29.982727 C45.8313756,29.982727 46.5333565,29.6890916 47.1192778,29.1018208 C47.7051991,28.51455 47.9987398,27.803236 47.9998999,26.9678789 C48.00106,26.1325218 47.7075193,25.4212078 47.1192778,24.833937 C46.5310362,24.2466661 45.8290553,23.9530307 45.0133351,23.9530307 L44.7470892,23.9530307 C44.1782473,19.8979673 42.5427625,16.3146418 39.8406347,13.2030542 C37.1385069,10.0914666 33.8316866,7.96664738 29.9201736,6.82859661 L29.9201736,6.77569775 C29.9918428,6.41949276 30.0276774,6.15261302 30.0276774,5.97505853 C30.0276774,4.30315156 29.4411761,2.88963022 28.2681733,1.73449451 C27.0951706,0.579358793 25.6729854,0.00119457072 24.0016176,1.84161426e-06 C22.3302498,-0.00119088749 20.9171844,0.576973335 19.7624212,1.73449451 C18.607658,2.89201568 18.0296803,4.30553702 18.0284879,5.97505853 C18.0284879,6.15261302 18.0461152,6.43712571 18.0813697,6.82859661 C14.1698568,7.96671185 10.8630364,10.091531 8.16090865,13.2030542 C5.45878086,16.3145773 3.82329603,19.8979028 3.25445416,23.9530307 L2.98820832,23.9530307 C2.59683145,23.9530307 2.21455824,24.0332655 1.8413887,24.1937351 C1.46821915,24.3542046 1.14794751,24.5675891 0.880573786,24.8338886 C0.61320006,25.1001881 0.399884359,25.4205631 0.240626685,25.7950135 C0.0813690102,26.1694639 0.00116011525,26.5694934 -4.26325641e-14,26.995102 C-4.26325641e-14,27.8134064 0.29354071,28.5156137 0.88062213,29.1017241 C1.46770355,29.6878344 2.16968445,29.9814698 2.98656484,29.9826303 L2.98830506,29.982727 Z M24.0000225,2.98922261 C24.818063,2.98922261 25.5200439,3.28285802 26.1059652,3.87012884 C26.6918865,4.45739966 26.9854272,5.15960703 26.9865873,5.97675096 L26.9865873,6.13718826 L26.9337056,6.19008712 C26.435405,6.11839482 25.9376361,6.06491572 25.440399,6.02964981 C24.9431618,5.99438391 24.4630363,5.97675096 24.0000225,5.97675096 C23.5370087,5.97675096 23.0568832,5.99438391 22.5596461,6.02964981 C22.0624089,6.06491572 21.56464,6.11839482 21.0663395,6.19008712 L21.0134577,6.13718826 L21.0134577,5.97675096 C21.0134577,5.15844655 21.3069984,4.45623917 21.8940798,3.87012884 C22.4811612,3.28401851 23.1831421,2.9903831 24.0000225,2.98922261 L24.0000225,2.98922261 Z M11.3609343,19.0466858 C12.3211852,17.4818015 13.5391262,16.1303017 15.0147572,14.9921865 C16.4903882,13.8540712 18.1349928,13.0357668 19.948571,12.5372733 C20.0202402,12.5020073 20.0913615,12.4843744 20.161935,12.4843744 L20.161935,12.4843744 C20.2688588,12.4491085 20.3576074,12.4314755 20.4281809,12.4314755 C20.8548123,12.4314755 21.2194421,12.5828385 21.5220704,12.8855644 C21.8246986,13.1882903 21.9760128,13.5530377 21.9760128,13.9798068 C21.9760128,14.2290536 21.9225509,14.4600871 21.8156272,14.6729075 C21.7087035,14.8857279 21.5573894,15.0638304 21.3616848,15.207215 C21.1659803,15.3505996 20.9617521,15.4393769 20.7490003,15.4735468 C19.7887494,15.7580917 18.89108,16.1404882 18.0559923,16.6207364 C17.2209046,17.1009845 16.4563421,17.6700421 15.7623047,18.3279092 C15.0682674,18.9857763 14.4726624,19.7061969 13.9754897,20.4891709 C13.9038205,20.6667254 13.7968646,20.8266308 13.6546219,20.9688872 C13.5123792,21.1111435 13.3525253,21.218134 13.1750603,21.2898585 C12.9975953,21.3615831 12.8019069,21.3974292 12.587995,21.397397 C12.1613636,21.397397 11.8058213,21.2551245 11.5213682,20.9705796 C11.236915,20.6860346 11.0946884,20.3303777 11.0946884,19.9036086 C11.0946884,19.5837978 11.183437,19.2992851 11.3609343,19.0500705 L11.3609343,19.0466858 Z M45.0134317,32.9703037 L2.98840175,32.9703037 C2.17036125,32.9703037 1.46838035,33.2639391 0.882459041,33.85121 C0.296537736,34.4384808 0.00299702653,35.1497947 0.00183691128,35.9851519 C0.000676796028,36.820509 0.294217506,37.5318229 0.882459041,38.1190938 C1.47070058,38.7063646 2.17268148,39 2.98840175,39 L45.0134317,39 C45.8314722,39 46.5334531,38.7063646 47.1193744,38.1190938 C47.7052957,37.5318229 47.9988365,36.820509 47.9999966,35.9851519 C48.0011567,35.1497947 47.707616,34.4384808 47.1193744,33.85121 C46.5311329,33.2639391 45.829152,32.9703037 45.0134317,32.9703037 Z" id="svg/icon_pay_eat" fill="#FF4F48" fill-rule="nonzero"></path>
    </g>
</svg>