<?xml version="1.0" encoding="UTF-8"?>
<svg width="48px" height="36px" viewBox="0 0 48 36" version="1.1" xmlns="http://www.w3.org/2000/svg" xmlns:xlink="http://www.w3.org/1999/xlink">
    <!-- Generator: Sketch 53.2 (72643) - https://sketchapp.com -->
    <title>svg/icon_pay_learn</title>
    <desc>Created with Sketch.</desc>
    <g id="icon" stroke="none" stroke-width="1" fill="none" fill-rule="evenodd">
        <path d="M45.2787175,18.9527253 C45.2803029,19.5942694 45.6919786,20.4414912 46.1945507,20.8347299 L46.5893154,21.1443122 C47.0918875,21.537551 47.1262378,22.2222554 46.6659431,22.6650487 L45.3807116,23.9007137 C44.920417,24.343507 44.145156,24.367485 43.658438,23.9539981 L42.2104387,22.7236615 C41.7237207,22.3101747 41.7416886,21.6558424 42.2500737,21.2700634 L42.7542311,20.8869486 C43.2626163,20.5011697 43.6785197,19.660342 43.6785197,19.018798 L43.6785197,13.6104324 C43.6785197,12.9688884 43.1933871,12.6337296 42.6004473,12.8665824 L25.0463622,19.7498598 C24.4534224,19.9821797 23.485271,19.9763184 22.8955019,19.735473 L0.444114128,10.5940032 C-0.1461834,10.3536906 -0.148297268,9.95512333 0.439357926,9.70841661 L23.101604,0.18543054 C23.6887308,-0.0612761828 24.6505405,-0.0618090266 25.2381957,0.183832008 L47.5458405,9.52032271 C48.1334957,9.76649659 48.1535775,10.2119541 47.5902317,10.5103467 L46.2880893,11.2014452 C45.725272,11.5003706 45.2649774,12.2692644 45.2665628,12.9113412 L45.2787175,18.9527253 Z M36.5658837,18.6649896 C37.1561813,18.4252099 37.6386715,18.7545074 37.6386715,19.3955186 L37.6386715,29.6128002 C37.6386715,30.2543443 37.2819564,31.1617774 36.8459712,31.6296144 C36.8459712,31.6296144 32.7714914,36 24.2156123,36 C15.0017918,36 10.8263749,31.620556 10.8263749,31.620556 C10.3856335,31.1580475 10.0246906,30.2543443 10.0246906,29.6133331 L10.0246906,19.2734973 C10.0246906,18.6319533 10.5082378,18.3015901 11.0990638,18.5397713 L22.9647311,23.3199139 C23.5555571,23.5580951 24.5221231,23.5564966 25.1124206,23.3167168 L36.5658837,18.6649896 Z" id="svg/icon_pay_learn" fill="#FF4F48" fill-rule="nonzero"></path>
    </g>
</svg>