<?xml version="1.0" encoding="UTF-8"?>
<svg width="32px" height="26px" viewBox="0 0 32 26" version="1.1" xmlns="http://www.w3.org/2000/svg" xmlns:xlink="http://www.w3.org/1999/xlink">
    <!-- Generator: Sketch 53.2 (72643) - https://sketchapp.com -->
    <title>svg/icon_i_card</title>
    <desc>Created with Sketch.</desc>
    <g id="视觉图" stroke="none" stroke-width="1" fill="none" fill-rule="evenodd">
        <g id="7我的主页" transform="translate(-42.000000, -703.000000)" fill="#D4D4D4" fill-rule="nonzero">
            <g id="Rows/单行列表" transform="translate(32.000000, 660.000000)">
                <g id="Bg/白色_下划线">
                    <g id="分组-11">
                        <path d="M10,49.0000109 L10.0000356,44.9999918 C10.0000356,43.8953844 10.8954147,43 12.0000156,43 L39.9999489,43 C41.1045497,43 41.9999289,43.8953844 41.9999289,44.9999918 L41.9999289,49.0000109 L10,49.0000109 L10,49.0000109 Z M42,50.9999672 L41.9999644,67.0000082 C41.9999644,68.1046156 41.1045853,69 39.9999844,69 L12.0000511,69 C10.8954503,69 10.0000711,68.1046156 10.0000711,67.0000082 L10.0000711,50.9999672 L42,50.9999672 L42,50.9999672 Z M26.9999722,60.9999617 L28.9999522,60.9999617 C29.5521637,60.9999617 29.9999422,60.5521806 29.9999422,59.9999658 C29.9999422,59.4475732 29.5521637,58.9999699 28.9999522,58.9999699 L26.9999722,58.9999699 C26.4475829,58.9999699 25.9999822,59.4475732 25.9999822,59.9999658 C25.9999822,60.5522161 26.4476185,60.9999617 26.9999722,60.9999617 Z M13.0000056,65.0000164 L20.9999967,65.0000164 C21.5522082,65.0000164 21.9999867,64.5522353 21.9999867,64.0000205 C21.9999867,63.4476279 21.5522082,63.0000246 20.9999967,63.0000246 L13.0000056,63.0000246 C12.447794,63.0000246 12.0000156,63.4476279 12.0000156,64.0000205 C12.0000156,64.5522709 12.447794,65.0000164 13.0000056,65.0000164 Z M13.0000056,60.9999617 L22.9999767,60.9999617 C23.5521882,60.9999617 23.9999667,60.5521806 23.9999667,59.9999658 C23.9999667,59.4475732 23.5521882,58.9999699 22.9999767,58.9999699 L13.0000056,58.9999699 C12.447794,58.9999699 12.0000156,59.4475732 12.0000156,59.9999658 C12.0000156,60.5522161 12.447794,60.9999617 13.0000056,60.9999617 Z" id="svg/icon_i_card"></path>
                    </g>
                </g>
            </g>
        </g>
    </g>
</svg>