<?xml version="1.0" encoding="UTF-8"?>
<svg width="48px" height="48px" viewBox="0 0 48 48" version="1.1" xmlns="http://www.w3.org/2000/svg" xmlns:xlink="http://www.w3.org/1999/xlink">
    <!-- Generator: Sketch 53.2 (72643) - https://sketchapp.com -->
    <title>svg/icon_pay_bus</title>
    <desc>Created with Sketch.</desc>
    <g id="icon" stroke="none" stroke-width="1" fill="none" fill-rule="evenodd">
        <path d="M45.1185154,11.5208099 L44.1602699,11.5208099 L44.1602699,6.71541057 C44.1602699,5.13610799 42.9995782,3.25984252 41.5824547,2.5511811 C41.5824547,2.5511811 36.4808098,-5.21356306e-10 24.0033741,0 C11.5259384,5.21356306e-10 6.41754534,2.5511811 6.41754534,2.5511811 C5.00042176,3.25984252 3.83973007,5.13610799 3.83973007,6.71541057 L3.83973007,11.5208099 L2.88148461,11.5208099 C1.29424694,11.5245016 0.00741272632,12.8085027 0,14.3959505 L0,17.2778403 C0.00371030807,18.8679244 1.291624,20.1560192 2.88148461,20.15973 L3.83973007,20.15973 L3.83973007,39.84027 C3.84573128,41.0594299 4.61468518,42.1442121 5.76296921,42.5534308 L5.76296921,44.15973 C5.76296921,46.2806526 7.48207492,48 9.60269928,48 C11.7233236,48 13.4424294,46.2806526 13.4424294,44.15973 L13.4424294,42.7221597 L34.5575706,42.7221597 L34.5575706,44.15973 C34.5575706,46.2806526 36.2766764,48 38.3973007,48 C40.5179251,48 42.2370308,46.2806526 42.2370308,44.15973 L42.2370308,42.5534308 C43.3865805,42.145885 44.156266,41.0600707 44.1602699,39.84027 L44.1602699,20.15973 L45.1185154,20.15973 C46.708376,20.1560192 47.9962897,18.8679244 48,17.2778403 L48,14.3959505 C47.9925873,12.8085027 46.7057531,11.5245016 45.1185154,11.5208099 Z M14.4006748,4.79865017 C14.4043523,4.27088237 14.8312267,3.84394792 15.3589203,3.84026997 L32.6410797,3.84026997 C33.1687733,3.84394792 33.5956477,4.27088237 33.5993252,4.79865017 L33.5993252,6.71541057 C33.5993381,7.24581218 33.1713938,7.67683083 32.6410797,7.68053993 L15.3589203,7.68053993 C14.8286062,7.67683083 14.4006619,7.24581218 14.4006748,6.71541057 L14.4006748,4.79865017 Z M10.081822,38.8818898 C8.75503419,38.8818898 7.67946014,37.8061645 7.67946014,36.4791901 C7.67946014,35.1522157 8.75503419,34.0764904 10.081822,34.0764904 C11.4086098,34.0764904 12.4841839,35.1522157 12.4841839,36.4791901 C12.4804769,37.8046257 11.4070713,38.8781822 10.081822,38.8818898 L10.081822,38.8818898 Z M37.918178,38.8818898 C36.5913902,38.8818898 35.5158161,37.8061645 35.5158161,36.4791901 C35.5158161,35.1522157 36.5913902,34.0764904 37.918178,34.0764904 C39.2449658,34.0764904 40.3205399,35.1522157 40.3205399,36.4791901 C40.3205399,37.8061645 39.2449658,38.8818898 37.918178,38.8818898 L37.918178,38.8818898 Z M40.3205399,27.84027 C40.3168624,28.3680378 39.889988,28.7949722 39.3622944,28.7986502 L8.64445382,28.7986502 C8.11412678,28.7986631 7.68316872,28.3706586 7.67946014,27.84027 L7.67946014,12.4791901 C7.68316872,11.9488015 8.11412678,11.5207969 8.64445382,11.5208099 L39.3622944,11.5208099 C39.889988,11.5244879 40.3168624,11.9514223 40.3205399,12.4791901 L40.3205399,27.84027 Z" id="svg/icon_pay_bus" fill="#FF4F48" fill-rule="nonzero"></path>
    </g>
</svg>